<svg xmlns="http://www.w3.org/2000/svg" width="258.793" height="37.844" viewBox="0 0 258.793 37.844"><defs><style>.a{fill:#fff;}</style></defs><g transform="translate(-366 -860.063)"><path class="a" d="M1057.662,2751.034a7.722,7.722,0,0,0,1.962-.431,1.481,1.481,0,0,0,1.059-1.4,1.643,1.643,0,0,0-.814-1.594,5.116,5.116,0,0,0-2.385-.437,3.129,3.129,0,0,0-2.5.859,3.535,3.535,0,0,0-.7,1.724h-4.743a7.206,7.206,0,0,1,1.388-4.053c1.3-1.65,3.543-2.479,6.714-2.479a12.037,12.037,0,0,1,5.515,1.219q2.4,1.232,2.4,4.624v8.621c0,.6.009,1.326.038,2.174a2.781,2.781,0,0,0,.287,1.313,1.716,1.716,0,0,0,.729.57v.723h-5.354a6.2,6.2,0,0,1-.3-1.065c-.06-.34-.1-.716-.138-1.138a10.335,10.335,0,0,1-2.359,1.877,7.2,7.2,0,0,1-3.608.914,6.215,6.215,0,0,1-4.24-1.459,5.2,5.2,0,0,1-1.675-4.134,5.359,5.359,0,0,1,2.693-5.019,12.192,12.192,0,0,1,4.344-1.205Zm3,2.286a5.146,5.146,0,0,1-.947.484,9.273,9.273,0,0,1-1.319.332l-1.123.21a7.326,7.326,0,0,0-2.258.671,2.244,2.244,0,0,0-1.161,2.086,2.171,2.171,0,0,0,.707,1.815,2.689,2.689,0,0,0,1.725.567,5.092,5.092,0,0,0,2.963-.935,3.915,3.915,0,0,0,1.412-3.4Z" transform="translate(-682.939 -1873.45)"/><path class="a" d="M1153.414,2743.832a5.455,5.455,0,0,1,2.2,1.692,5.373,5.373,0,0,1,1.063,2.411,16.514,16.514,0,0,1,.176,2.776l-.036,11.848h-5.036v-11.966a3.963,3.963,0,0,0-.347-1.761,2.458,2.458,0,0,0-2.414-1.309,2.829,2.829,0,0,0-2.813,1.694,5.256,5.256,0,0,0-.393,2.151v11.192h-4.954v-11.192a6.369,6.369,0,0,0-.338-2.431,2.419,2.419,0,0,0-2.434-1.363,2.905,2.905,0,0,0-2.832,1.363,5.337,5.337,0,0,0-.4,2.307v11.316h-4.983V2743.8h4.777v2.745a8.06,8.06,0,0,1,1.725-2.094,6.862,6.862,0,0,1,7.194-.153,5.555,5.555,0,0,1,1.624,2.261,6.305,6.305,0,0,1,2.391-2.435,7.4,7.4,0,0,1,3.377-.77,6.529,6.529,0,0,1,2.45.481" transform="translate(-742.982 -1873.544)"/><path class="a" d="M1260.1,2743.914a7.673,7.673,0,0,1,3.25,2.782,9.243,9.243,0,0,1,1.5,3.885,23.782,23.782,0,0,1,.165,3.724h-13.691a4.5,4.5,0,0,0,1.964,3.972,5,5,0,0,0,2.712.7,3.822,3.822,0,0,0,3.74-2.155h5.015a6.082,6.082,0,0,1-1.82,3.4,9.136,9.136,0,0,1-7.072,2.744,10.273,10.273,0,0,1-6.624-2.318q-2.867-2.307-2.864-7.522,0-4.883,2.584-7.49a9.077,9.077,0,0,1,6.724-2.6,10.736,10.736,0,0,1,4.42.875m-7.35,4.242a5.089,5.089,0,0,0-1.309,2.911h8.469a4.128,4.128,0,0,0-1.317-2.968,4.279,4.279,0,0,0-2.911-1.01,3.892,3.892,0,0,0-2.933,1.068" transform="translate(-832.061 -1873.313)"/><path class="a" d="M1338.741,2743.23c.064,0,.2.011.421.026v5.031c-.305-.031-.583-.056-.823-.065s-.439-.023-.591-.023q-2.965,0-3.981,1.941a7.5,7.5,0,0,0-.569,3.34v8.985h-4.949v-18.8h4.69v3.277a10.656,10.656,0,0,1,1.981-2.573,5.43,5.43,0,0,1,3.589-1.15l.231.008" transform="translate(-893.788 -1873.449)"/><rect class="a" width="4.992" height="19.159" transform="translate(448.101 869.858)"/><path class="a" d="M1426.826,2750.413a4.324,4.324,0,0,0-.711-1.9,2.987,2.987,0,0,0-2.58-1.136,3.392,3.392,0,0,0-3.4,2.466,10.325,10.325,0,0,0-.48,3.472,9.481,9.481,0,0,0,.48,3.319,3.286,3.286,0,0,0,3.318,2.346,2.933,2.933,0,0,0,2.458-.93,4.706,4.706,0,0,0,.88-2.412h5.017a8.211,8.211,0,0,1-1.626,4.245,7.879,7.879,0,0,1-6.845,3.219q-4.547,0-6.686-2.689a10.855,10.855,0,0,1-2.136-6.977c0-3.228.785-5.727,2.361-7.521a8.22,8.22,0,0,1,6.523-2.693,9.783,9.783,0,0,1,5.795,1.587q2.251,1.583,2.667,5.6Z" transform="translate(-959.028 -1873.451)"/><path class="a" d="M1498.767,2751.034a7.681,7.681,0,0,0,1.956-.431,1.482,1.482,0,0,0,1.064-1.4,1.643,1.643,0,0,0-.814-1.594,5.087,5.087,0,0,0-2.386-.437,3.081,3.081,0,0,0-2.488.859,3.424,3.424,0,0,0-.706,1.724h-4.748a7.268,7.268,0,0,1,1.387-4.053q1.956-2.476,6.72-2.479a12.011,12.011,0,0,1,5.508,1.219q2.408,1.232,2.408,4.624v8.621c0,.6.013,1.326.034,2.174a2.788,2.788,0,0,0,.294,1.313,1.759,1.759,0,0,0,.724.57v.723h-5.343a5.894,5.894,0,0,1-.31-1.065c-.06-.34-.1-.716-.142-1.138a10.286,10.286,0,0,1-2.359,1.877,7.159,7.159,0,0,1-3.608.914,6.211,6.211,0,0,1-4.239-1.459,5.191,5.191,0,0,1-1.672-4.134,5.357,5.357,0,0,1,2.69-5.019,12.172,12.172,0,0,1,4.342-1.205Zm3.006,2.286a5.27,5.27,0,0,1-.954.484,8.909,8.909,0,0,1-1.319.332l-1.123.21a7.333,7.333,0,0,0-2.256.671,2.236,2.236,0,0,0-1.158,2.086,2.177,2.177,0,0,0,.707,1.815,2.686,2.686,0,0,0,1.721.567,5.115,5.115,0,0,0,2.969-.935,3.954,3.954,0,0,0,1.414-3.4Z" transform="translate(-1016.08 -1873.45)"/><path class="a" d="M1586.595,2744.75q1.85,1.526,1.847,5.061v12.659H1583.4v-11.437a5.183,5.183,0,0,0-.393-2.269,2.759,2.759,0,0,0-2.74-1.454,3.407,3.407,0,0,0-3.409,2.125,7.4,7.4,0,0,0-.476,2.858v10.176h-4.912v-18.764h4.76v2.744a8.4,8.4,0,0,1,1.787-2.094,6.187,6.187,0,0,1,3.824-1.128,7.219,7.219,0,0,1,4.752,1.522" transform="translate(-1077.555 -1873.453)"/><path class="a" d="M1657.519,2751.034a7.619,7.619,0,0,0,1.958-.431,1.481,1.481,0,0,0,1.065-1.4,1.654,1.654,0,0,0-.812-1.594,5.11,5.11,0,0,0-2.383-.437,3.13,3.13,0,0,0-2.5.859,3.415,3.415,0,0,0-.7,1.724H1649.4a7.206,7.206,0,0,1,1.384-4.053q1.96-2.476,6.725-2.479a12,12,0,0,1,5.5,1.219q2.4,1.232,2.4,4.624v8.621q0,.9.037,2.174a2.669,2.669,0,0,0,.293,1.313,1.717,1.717,0,0,0,.718.57v.723h-5.342a5.055,5.055,0,0,1-.307-1.065c-.053-.34-.1-.716-.135-1.138a10.583,10.583,0,0,1-2.365,1.877,7.147,7.147,0,0,1-3.607.914,6.2,6.2,0,0,1-4.237-1.459,5.161,5.161,0,0,1-1.673-4.134,5.352,5.352,0,0,1,2.684-5.019,12.21,12.21,0,0,1,4.348-1.205Zm3.005,2.286a5.239,5.239,0,0,1-.947.484,9.06,9.06,0,0,1-1.32.332l-1.124.21a7.393,7.393,0,0,0-2.26.671,2.239,2.239,0,0,0-1.16,2.086,2.164,2.164,0,0,0,.709,1.815,2.7,2.7,0,0,0,1.727.567,5.114,5.114,0,0,0,2.963-.935,3.961,3.961,0,0,0,1.411-3.4Z" transform="translate(-1135.978 -1873.45)"/><path class="a" d="M1730.38,2756.2a3.213,3.213,0,0,0,.677,1.858q.913.988,3.395.989a5.224,5.224,0,0,0,2.316-.435,1.442,1.442,0,0,0,.158-2.551,27.587,27.587,0,0,0-5.134-1.481,10.766,10.766,0,0,1-4.516-1.987,4.287,4.287,0,0,1-1.305-3.378,5.832,5.832,0,0,1,2.044-4.475,8.213,8.213,0,0,1,5.762-1.877,10.555,10.555,0,0,1,5.744,1.412,6.009,6.009,0,0,1,2.551,4.852h-4.918a2.926,2.926,0,0,0-.53-1.5,3.4,3.4,0,0,0-2.77-1,3.994,3.994,0,0,0-2.289.5,1.437,1.437,0,0,0-.681,1.175,1.285,1.285,0,0,0,.722,1.224,31.2,31.2,0,0,0,5.131,1.359,9.492,9.492,0,0,1,4.407,2.091,4.718,4.718,0,0,1,1.444,3.533,5.709,5.709,0,0,1-2.078,4.561q-2.084,1.767-6.437,1.766-4.446,0-6.558-1.87a6.056,6.056,0,0,1-2.114-4.765Z" transform="translate(-1193.807 -1873.184)"/><path class="a" d="M1847.91,2750.413a4.39,4.39,0,0,0-.705-1.9,2.987,2.987,0,0,0-2.579-1.136,3.388,3.388,0,0,0-3.406,2.466,10.229,10.229,0,0,0-.482,3.472,9.393,9.393,0,0,0,.482,3.319,3.281,3.281,0,0,0,3.317,2.346,2.938,2.938,0,0,0,2.461-.93,4.627,4.627,0,0,0,.878-2.412h5.014a8.263,8.263,0,0,1-1.615,4.245,7.911,7.911,0,0,1-6.855,3.219c-3.027,0-5.249-.895-6.686-2.689a10.9,10.9,0,0,1-2.138-6.977c0-3.228.791-5.727,2.367-7.521a8.232,8.232,0,0,1,6.526-2.693,9.773,9.773,0,0,1,5.789,1.587q2.248,1.583,2.665,5.6Z" transform="translate(-1277.038 -1873.451)"/><path class="a" d="M1928.586,2760.389q-2.385,2.933-7.229,2.942t-7.219-2.942a11.67,11.67,0,0,1,0-14.124q2.375-2.977,7.219-2.978t7.229,2.978a11.666,11.666,0,0,1,0,14.124m-3.931-2.717a8.823,8.823,0,0,0,0-8.7,4.361,4.361,0,0,0-6.631,0,8.71,8.71,0,0,0,0,8.7,4.36,4.36,0,0,0,6.631,0" transform="translate(-1336.207 -1873.497)"/><path class="a" d="M2021.56,2744.512a5.507,5.507,0,0,1,2.192,1.694,5.439,5.439,0,0,1,1.063,2.413,16.33,16.33,0,0,1,.18,2.778l-.041,11.841h-5.03V2751.27a3.92,3.92,0,0,0-.347-1.753,2.446,2.446,0,0,0-2.42-1.31,2.832,2.832,0,0,0-2.811,1.688,5.4,5.4,0,0,0-.393,2.157v11.185H2009v-11.185a6.4,6.4,0,0,0-.341-2.434,2.416,2.416,0,0,0-2.432-1.363,2.9,2.9,0,0,0-2.828,1.363,5.222,5.222,0,0,0-.4,2.3v11.314h-4.983v-18.755h4.778v2.74a7.914,7.914,0,0,1,1.729-2.091,6.841,6.841,0,0,1,7.183-.158,5.587,5.587,0,0,1,1.624,2.266,6.245,6.245,0,0,1,2.393-2.433,7.358,7.358,0,0,1,3.383-.775,6.532,6.532,0,0,1,2.447.481" transform="translate(-1400.203 -1874.049)"/><rect class="a" width="191.454" height="4.831" transform="translate(366.03 860.063)"/><rect class="a" width="191.454" height="4.833" transform="translate(366.03 893.073)"/><path class="a" d="M1810.193,2799.5a2.825,2.825,0,1,1-2.826-2.821,2.821,2.821,0,0,1,2.826,2.821" transform="translate(-1253.141 -1913.107)"/></g></svg>