<svg xmlns="http://www.w3.org/2000/svg" width="249.573" height="48.841" viewBox="0 0 249.573 48.841"><defs><style>.a{fill:#fff;}</style></defs><g transform="translate(-1250 -839.288)"><g transform="translate(1285.035 839.288)"><path class="a" d="M3401.06,2756.076a24.827,24.827,0,0,1-9.658-1.811l.439-5.487a19.326,19.326,0,0,0,8.726,2.3c2.853,0,4.5-.878,4.5-2.633,0-4.666-13.774-1.756-13.774-11.579,0-5.269,4.5-8.4,10.976-8.4a23.951,23.951,0,0,1,7.463,1.152v5.159a18.725,18.725,0,0,0-6.969-1.373c-2.744,0-4.719.988-4.719,2.744,0,4.28,13.774,1.866,13.774,11.524C3411.816,2753.277,3407.152,2756.076,3401.06,2756.076Z" transform="translate(-3391.292 -2717.662)"/><path class="a" d="M3504.944,2727.528h-7.3v-16.244a6.242,6.242,0,0,0-.878-3.9,4.118,4.118,0,0,0-3.458-1.481,4.5,4.5,0,0,0-3.732,1.7c-.878,1.152-1.1,2.634-1.1,4.664v15.256h-7.3v-37.536h7.3v12.9a9.676,9.676,0,0,1,6.86-2.469c3.128,0,5.653.878,7.3,2.58,1.7,1.811,2.3,4.116,2.3,7.134Z" transform="translate(-3456.826 -2689.607)"/><path class="a" d="M3595.509,2756.076c-8.341,0-12.951-5.159-12.951-13.774s4.61-13.829,12.951-13.829,12.951,5.214,12.951,13.829S3603.85,2756.076,3595.509,2756.076Zm0-22.609c-3.4,0-5.543,2.36-5.543,8.835s2.141,8.78,5.543,8.78,5.542-2.3,5.542-8.78S3598.912,2733.467,3595.509,2733.467Z" transform="translate(-3530.735 -2717.662)"/><path class="a" d="M3706.635,2753.277c-2.249,1.866-5.268,2.8-9.109,2.8a23.13,23.13,0,0,1-4.225-.384V2766.5H3686v-32.378h-3.183v-5.158h7.628l1.427,3.457a9.61,9.61,0,0,1,8.177-3.951c7.463,0,10.811,5.324,10.811,13.445C3710.861,2746.692,3709.6,2750.808,3706.635,2753.277Zm-8.506-19.426a4.394,4.394,0,0,0-3.786,1.812c-.823,1.1-1.043,2.524-1.043,4.554v10.7a14.737,14.737,0,0,0,3.567.439c5.1,0,6.585-3.511,6.585-9.219C3703.452,2736.7,3701.806,2733.851,3698.129,2733.851Z" transform="translate(-3603.831 -2717.662)"/><path class="a" d="M3810.1,2733.057a12.786,12.786,0,0,1-6.64,1.756,8.374,8.374,0,0,1-6.037-2.14c-1.372-1.482-1.866-3.4-1.866-6.859v-12.951h-4.17V2707.7h4.17v-6.585l7.3-1.811v8.4H3809v5.159h-6.146V2725.7c0,2.525.658,3.9,2.908,3.9a9.273,9.273,0,0,0,4.5-1.427Z" transform="translate(-3682.98 -2696.399)"/><path class="a" d="M3880.4,2725.45a9.007,9.007,0,0,1-4.828,1.372c-2.25,0-3.787-.658-4.666-1.865a7.513,7.513,0,0,1-.987-4.28v-15.64h-3.183v-5.159h10.481v20.47c0,1.152.438,1.646,1.317,1.646a4.308,4.308,0,0,0,2.085-.713Zm-6.97-28.756a4.1,4.1,0,0,1-4.115-4.061,4.052,4.052,0,0,1,4.062-4.061,4,4,0,0,1,4.005,4.061A3.96,3.96,0,0,1,3873.426,2696.695Z" transform="translate(-3737.912 -2688.573)"/><path class="a" d="M3963.235,2755.583h-7.3v-16.244c0-1.7-.056-2.854-.823-3.9a4.115,4.115,0,0,0-3.348-1.481,4.438,4.438,0,0,0-3.567,1.646c-.823,1.1-1.1,2.524-1.1,4.609v15.366h-7.3v-16.244c0-1.7-.055-2.854-.823-3.9a4.115,4.115,0,0,0-3.347-1.481,4.437,4.437,0,0,0-3.567,1.646c-.823,1.1-1.1,2.524-1.1,4.609v15.366h-7.3v-21.458h-3.183v-5.158H3928l1.318,3.4c1.537-2.25,4.39-3.9,8.4-3.9,3.4,0,6.31.988,8.012,3.623a10.017,10.017,0,0,1,8.122-3.623c3.567,0,6.366,1.208,7.848,3.348,1.042,1.482,1.535,3.348,1.535,6.421Z" transform="translate(-3777.102 -2717.662)"/><path class="a" d="M4113.514,2744.662h-13.83c.494,4.28,3.128,6.366,7.188,6.366a16.217,16.217,0,0,0,8.726-2.69l-.273,4.994a17.855,17.855,0,0,1-9.933,2.744c-8.506,0-13.225-5.378-13.225-13.665,0-8.781,5.1-13.939,12.566-13.939,7.244,0,12.073,4.83,12.073,12.238C4116.806,2743.564,4115.983,2744.662,4113.514,2744.662Zm-8.781-11.25c-2.8,0-4.939,2.141-5.159,7.08h9.714c.383,0,.493-.165.493-.549C4109.782,2735.771,4107.861,2733.412,4104.733,2733.412Z" transform="translate(-3902.268 -2717.662)"/></g><path class="a" d="M3289.356,2728.521h-27.37v27.369h27.37Zm-26.151,12.447,11.228-11.229h13.7l-24.931,24.93Zm13.7,13.7,11.228-11.229v11.229Z" transform="translate(-2011.986 -1878.409)"/></g></svg>