<svg xmlns="http://www.w3.org/2000/svg" width="250.619" height="53.573" viewBox="0 0 250.619 53.573"><defs><style>.a{fill:#fff;}</style></defs><g transform="translate(-810 -844.77)"><path class="a" d="M88.318,32.745h-14.5V28.78a6.209,6.209,0,0,0-6.33-6.27H61.658V16.4c0-1.872.3-2.043,2.969-2.043A3,3,0,0,0,67.586,11.4,2.962,2.962,0,0,0,64.778,8.44H58.7A2.946,2.946,0,0,0,55.74,11.4V22.51H49.631a6.089,6.089,0,0,0-6.26,6.27v3.965H29.1A11.848,11.848,0,0,0,17.475,42.3H15.251c.453-2.335,1.248-5.817,1.248-6.25,0-.644-.493-1.661-1.973-1-1.429.644-3.08,1.419-3.08,1.419s-1.771.7-.674,1.8a9.479,9.479,0,0,1,2.154,6.018v.02a9.468,9.468,0,0,1-2.154,6.008c-1.1,1.1.674,1.8.674,1.8s1.651.775,3.08,1.419c1.479.664,1.973-.352,1.973-.986,0-.393-.825-3.492-1.268-5.706v-.01h2.244A11.839,11.839,0,0,0,29.1,56.417H88.318a11.836,11.836,0,1,0,0-23.671Z" transform="translate(799.586 836.33)"/><g transform="translate(906.544 869.186)"><path class="a" d="M107.256,52.688a2.271,2.271,0,0,1-.916-1.822,2.23,2.23,0,0,1,2.264-2.234,2.31,2.31,0,0,1,1.379.443,9.293,9.293,0,0,0,5.636,1.983c1.983,0,3.18-.785,3.18-2.073v-.06c0-1.228-.755-1.852-4.438-2.8-4.438-1.127-7.3-2.355-7.3-6.733v-.06c0-4,3.211-6.632,7.709-6.632a12.784,12.784,0,0,1,6.985,1.952,2.245,2.245,0,0,1-1.2,4.157,2.331,2.331,0,0,1-1.228-.352,9.148,9.148,0,0,0-4.63-1.479c-1.852,0-2.828.845-2.828,1.922v.06c0,1.449.946,1.912,4.75,2.888,4.469,1.167,6.985,2.768,6.985,6.6v.06c0,4.378-3.331,6.824-8.082,6.824A14.214,14.214,0,0,1,107.256,52.688Z" transform="translate(-106.34 -32.7)"/><path class="a" d="M140.789,56.745a2.39,2.39,0,1,1-4.781,0v-.191a5.953,5.953,0,0,1-4.942,2.707c-3.613,0-5.727-2.4-5.727-6.26V44.285a2.4,2.4,0,0,1,4.791,0v7.206c0,2.264,1.067,3.422,2.9,3.422s2.989-1.167,2.989-3.422V44.285a2.39,2.39,0,0,1,4.781,0v12.46Z" transform="translate(-106.218 -32.641)"/><path class="a" d="M142.54,37.075a2.39,2.39,0,1,1,4.781,0V43.4a6.2,6.2,0,0,1,5.254-2.738c3.935,0,7.669,3.08,7.669,8.716v.06c0,5.626-3.684,8.716-7.669,8.716a6.5,6.5,0,0,1-5.254-2.516v.03a2.39,2.39,0,0,1-4.781-.04Zm12.923,12.359v-.06c0-2.8-1.892-4.65-4.116-4.65s-4.086,1.852-4.086,4.65v.06c0,2.8,1.852,4.66,4.086,4.66S155.463,52.262,155.463,49.434Z" transform="translate(-106.107 -32.687)"/><path class="a" d="M161.98,39.026a2.39,2.39,0,0,1,4.781,0v.191a6.009,6.009,0,0,1,4.972-2.707,5.047,5.047,0,0,1,4.75,2.677,6.945,6.945,0,0,1,5.535-2.677c3.553,0,5.7,2.134,5.7,6.2v8.776a2.39,2.39,0,1,1-4.781,0V44.28c0-2.264-1.006-3.432-2.8-3.432s-2.9,1.167-2.9,3.432v7.206a2.39,2.39,0,1,1-4.781,0V44.28c0-2.264-1.006-3.432-2.8-3.432s-2.9,1.167-2.9,3.432v7.206a2.39,2.39,0,1,1-4.781,0Z" transform="translate(-105.982 -32.675)"/><path class="a" d="M189.39,52.1v-.06c0-3.684,2.8-5.374,6.793-5.374a11.924,11.924,0,0,1,4.126.694v-.282c0-1.983-1.228-3.08-3.623-3.08a11.023,11.023,0,0,0-3.3.473,2.1,2.1,0,0,1-.694.121,1.948,1.948,0,0,1-1.983-1.952A1.978,1.978,0,0,1,192,40.786a14.694,14.694,0,0,1,5.374-.886c2.607,0,4.5.694,5.7,1.892a7.337,7.337,0,0,1,1.822,5.374v7.669a2.294,2.294,0,0,1-2.325,2.295,2.143,2.143,0,0,1-2.295-1.983v-.03a6.492,6.492,0,0,1-5.093,2.144C192,57.251,189.39,55.429,189.39,52.1Zm10.97-1.107v-.845a7.341,7.341,0,0,0-3.049-.624c-2.043,0-3.3.815-3.3,2.325v.06c0,1.288,1.067,2.043,2.607,2.043C198.85,53.95,200.36,52.722,200.36,50.991Z" transform="translate(-105.805 -32.654)"/><path class="a" d="M206.64,41.6a2.4,2.4,0,1,1,4.791,0v.755c.694-1.63,1.822-3.15,3.241-3.15A2.176,2.176,0,0,1,217,41.525a2.2,2.2,0,0,1-1.791,2.234c-2.426.564-3.774,2.426-3.774,5.817v4.469a2.4,2.4,0,1,1-4.791,0Z" transform="translate(-105.694 -32.658)"/><path class="a" d="M218.55,36.994c0-1.389,1.167-2.234,2.677-2.234s2.667.845,2.667,2.234v.06a2.709,2.709,0,0,1-5.344,0Zm.282,6.23a2.39,2.39,0,1,1,4.781,0v12.46a2.39,2.39,0,1,1-4.781,0Z" transform="translate(-105.618 -32.687)"/><path class="a" d="M225.41,46.926a2.4,2.4,0,0,1,4.791,0v.191a5.953,5.953,0,0,1,4.942-2.707c3.613,0,5.727,2.385,5.727,6.26v8.716a2.39,2.39,0,1,1-4.781,0V52.18c0-2.264-1.067-3.432-2.9-3.432S230.2,49.915,230.2,52.18v7.206a2.4,2.4,0,0,1-4.791,0Z" transform="translate(-105.574 -32.625)"/><path class="a" d="M241.31,45.257V45.2a8.853,8.853,0,0,1,9.149-8.776,8.758,8.758,0,0,1,9.088,8.716v.06a9.126,9.126,0,0,1-18.237.06Zm13.527,0V45.2a4.482,4.482,0,0,0-4.438-4.66,4.312,4.312,0,0,0-4.368,4.589v.06a4.474,4.474,0,0,0,4.438,4.65A4.3,4.3,0,0,0,254.837,45.257Z" transform="translate(-105.471 -32.676)"/></g></g></svg>